<svg version="1.0" width="2154.733" height="1047.779" xmlns="http://www.w3.org/2000/svg"><path d="m1955 1875 10-10c10 0 10 150 0 150 10 0 10-150 0-150l180 10c10 0 10 130 0 130l-180 10-10-10z" style="fill:#b2b2b2;fill-opacity:1;stroke:#000;stroke-width:3;stroke-linecap:butt;stroke-linejoin:miter;stroke-miterlimit:4;stroke-dasharray:none;stroke-opacity:1" transform="translate(-39.267 -1613.721)"/><path style="fill:#e5e5e5;fill-opacity:1;stroke:#000;stroke-width:3;stroke-linecap:butt;stroke-linejoin:miter;stroke-miterlimit:4;stroke-dasharray:none;stroke-opacity:1" d="M1065 1840H915v200h150v-110H915h150z" transform="translate(-39.267 -1613.721)"/><text xml:space="preserve" style="font-style:normal;font-variant:normal;font-weight:400;font-stretch:normal;font-size:36.5833px;line-height:1.25;font-family:Calibri;-inkscape-font-specification:Calibri;stroke-width:3;stroke-miterlimit:4;stroke-dasharray:none" x="887.219" y="2150.885" transform="matrix(1.14807 0 0 .87103 -39.267 -1613.721)"><tspan x="887.219" y="2150.885" style="stroke-width:3;stroke-miterlimit:4;stroke-dasharray:none">5</tspan></text><text xml:space="preserve" style="font-style:normal;font-variant:normal;font-weight:400;font-stretch:normal;font-size:42px;line-height:1.25;font-family:Calibri;-inkscape-font-specification:Calibri;stroke-width:3;stroke-miterlimit:4;stroke-dasharray:none" x="942.33" y="1873.447" transform="translate(-39.267 -1613.721)"><tspan x="942.33" y="1873.447">o</tspan></text><path style="fill:#ccc;fill-opacity:1;stroke:#000;stroke-width:3;stroke-linecap:butt;stroke-linejoin:miter;stroke-miterlimit:4;stroke-dasharray:none;stroke-opacity:1" d="M165 1900v50c0 40-60 180-80 260-30 120 100 410 400 410 320 0 410-290 410-390s10-140 20-160v-40H695h220v-190c.084-5.562-6.369-5.328-10-5H705c-5 0-10 5-10 10v255c0 120-80 240-210 240-150 0-230-110-230-230v-125c-10 0-10-95 0-95h-80c-5 0-10 5-10 10zM1065 1840c0-5 0-5 5-6l95-19h250v250h-250l-95-19c-5-1-5-1-5-6z" transform="translate(-39.267 -1613.721)"/><path style="fill:#b2b2b2;fill-opacity:1;stroke:#000;stroke-width:3;stroke-linecap:butt;stroke-linejoin:miter;stroke-miterlimit:4;stroke-dasharray:none;stroke-opacity:1" d="m780 1820-10 10v230l10 10h35l10-10v-230l-10-10v250-250h-35v250z" transform="translate(-39.267 -1613.721)"/><path style="fill:#e5e5e5;fill-opacity:1;stroke:#000;stroke-width:3;stroke-linecap:butt;stroke-linejoin:miter;stroke-miterlimit:4;stroke-dasharray:none;stroke-opacity:1" d="M290 1890h-35c-10 0-10 95 0 95h35c-10 0-10-95 0-95-10 0-10 95 0 95s10-95 0-95zM695 1890H395c-10 0-10 95 0 95h300z" transform="translate(-39.267 -1613.721)"/><path style="fill:none;stroke:#000;stroke-width:2;stroke-linecap:butt;stroke-linejoin:miter;stroke-miterlimit:4;stroke-dasharray:none;stroke-opacity:1" d="M955 1880v35zm75 0v35zm-60 15v20zm15 0v20zm15 0v20zm15 0v20zm30 0v20zm15 0v20zM963 1940v25zm15 0v25zm15 0v25zm15 0v25zm15 0v25zm15 0v25zm15 0v25zM1099 1833l-34 7zm0 6-34 7zm3 8-37 7zm17 7-54 9zm-19 14-35 5zm2 12-37 5zm1 13-38 4zm0 14-38 3zm19 14-57 2zm-57 16h40zm0 14h40zm0 14h40zm0 13 39 2zm0 13 60 4zm0 12 38 3zm0 10 39 4zm0 9 38 6zm0 8 38 6zm0 7 55 10zm0 5 35 7z" transform="translate(-39.267 -1613.721)"/><path style="fill:#b2b2b2;fill-opacity:1;stroke:#000;stroke-width:3;stroke-linecap:butt;stroke-linejoin:miter;stroke-miterlimit:4;stroke-dasharray:none;stroke-opacity:1" d="m1410 1815 10-10v270-270h55c5 0 5 270 0 270 5 0 5-270 0-270 1 0 6.548 10 6.548 10H1490c5 0 5 250 0 250 5 0 5-250 0-250l10-10c5 0 5 270 0 270 5 0 5-270 0-270h380c5 0 5 270 0 270 5 0 5-270 0-270h25c5 0 5 270 0 270 5 0 5-270 0-270 2 0 4 70 4 70h46c5 0 5 130 0 130h-46s-2 70-4 70h-405l-10-10h-8.478s-5.522 10-6.522 10h-55l-10-10z" transform="translate(-39.267 -1613.721)"/><text xml:space="preserve" style="font-style:normal;font-variant:normal;font-weight:400;font-stretch:normal;font-size:42px;line-height:1.25;font-family:Calibri;-inkscape-font-specification:Calibri;stroke-width:3;stroke-miterlimit:4;stroke-dasharray:none" x="1184.35" y="1931.188" transform="translate(-39.267 -1613.721)"><tspan x="1184.35" y="1931.188">15</tspan></text><text xml:space="preserve" style="font-style:normal;font-variant:normal;font-weight:400;font-stretch:normal;font-size:28.9982px;line-height:1.25;font-family:Calibri;-inkscape-font-specification:Calibri;stroke-width:3;stroke-miterlimit:4;stroke-dasharray:none" x="815.935" y="2979.681" transform="matrix(1.44837 0 0 .69043 -39.267 -1613.721)"><tspan x="815.935" y="2979.681" style="stroke-width:3;stroke-miterlimit:4;stroke-dasharray:none">5</tspan></text><text xml:space="preserve" style="font-style:normal;font-variant:normal;font-weight:400;font-stretch:normal;font-size:40.7321px;line-height:1.25;font-family:Calibri;-inkscape-font-specification:Calibri;stroke-width:3;stroke-miterlimit:4;stroke-dasharray:none" x="1149.395" y="2071.914" transform="matrix(1.03113 0 0 .96981 -39.267 -1613.721)"><tspan x="1149.395" y="2071.914" style="stroke-width:3;stroke-miterlimit:4;stroke-dasharray:none">10</tspan></text><text xml:space="preserve" style="font-style:normal;font-variant:normal;font-weight:400;font-stretch:normal;font-size:37.2339px;line-height:1.25;font-family:Calibri;-inkscape-font-specification:Calibri;stroke-width:3;stroke-miterlimit:4;stroke-dasharray:none" x="1046.381" y="2096.289" transform="matrix(1.128 0 0 .88652 -39.267 -1613.721)"><tspan x="1046.381" y="2096.289" style="stroke-width:3;stroke-miterlimit:4;stroke-dasharray:none">20</tspan></text></svg>