<svg version="1.0" width="3040" height="1080" xmlns="http://www.w3.org/2000/svg"><path d="M2699.086 387.32h247.169v18.766h65.454v24.717H2698.17l.916-43.483z" style="fill:#999;stroke:#000;stroke-width:3"/><path d="M180.876 244.151h-86.39c-9.71 0-10.195 4.854-10.195 10.195v316.698L159.14 885c19.292 80.923 46.934 106.178 105.192 106.178V630h-8V501.55H335v8h2364.273V310.824H335v8h-72.425v-68.068c0-125.083-71.33-197.925-91.575-212.31V164.5h9.876z" style="fill:#ccc;stroke:#000;stroke-width:3;fill-opacity:1"/><path d="M2661.003 473.075a9.692 9.692 0 1 1-19.385 0 9.692 9.692 0 1 1 19.385 0z" style="fill:gray"/><text style="font-size:22px;line-height:1.15;font-family:Arial;text-align:center;text-anchor:middle" x="187.2" y="412.7" transform="scale(.9 1.1)"><tspan x="187.2" y="412.7">INOX TEMP</tspan><tspan x="187.2" y="438">20°C</tspan></text><path d="M218.332 854.584c-8.696 0-9.593 3.186-9.593 9.594v113.4c15.23 10.451 36.723 13.795 55.593 13.6V854.584ZM171 38.445V164.5h9.876l-.133 26.039h23.469l-.39-117.906c-8.81-11.63-19.41-23.9-32.822-34.188Z" style="fill:#e5e5e5;stroke:#000;stroke-width:3"/><path d="M558.28 37.093V164.5h-11.814v79.651h135.29v66.835H479.792v-90.624c0-57.45 17.154-127.236 78.487-183.27z" style="fill:#b2b2b2;stroke:#000;stroke-width:3"/><path d="m595.62 579.851.044 43.984-11.708.198V991.5s60.007 9.587 90.92-106.501l56.938-213.82c6.706-25.184 22.87-35.082 61.077-35.262H1216.6V579.85Z" style="fill:#ccc;stroke:#000;stroke-width:3"/><path d="M867.164 589.224v64.425c0 4.806 2.135 6.991 12.11 6.991s166.973 6.282 166.973 6.282 49.876 32.128 91.315 31.926c47.145-.228 78.041-24.488 78.041-24.488l1.946-66.598z" style="fill:#b2b2b2;stroke:#000;stroke-width:3"/><path d="M911.687 605.364a7.781 7.781 0 1 1-15.563 0 7.781 7.781 0 0 1 15.563 0z" style="fill:gray"/><path d="M583.956 855.126v136.376c17.918-1.005 35.25-8.295 46.969-21.713V864.97c0-6.866-3.55-9.844-9.844-9.844h-37.125z" style="fill:#e5e5e5;stroke:#000;stroke-width:3"/><path style="stroke:#000;stroke-width:2" d="M296.5 434v56zm126 0v56zm126 0v56zm126 0v56zm126 0v56zm126 0v56zm126 0v56zm126 0v56zm126 0v56zm126 0v56zm126 0v56zm126 0v56zm126 0v56zm126 0v56zm126 0v56zm126 0v56zm126 0v56zm126 0v56zm126 0v56z"/><path style="stroke:#000;stroke-width:1.5" d="M309.1 456v34zm12.6 0v34zm12.6 0v34zm12.6 0v34zm25.2 0v34zm12.6 0v34zm12.6 0v34zm12.6 0v34zm25.2 0v34zm12.6 0v34zm12.6 0v34zm12.6 0v34zm25.2 0v34zm12.6 0v34zm12.6 0v34zm12.6 0v34zm25.2 0v34zm12.6 0v34zm12.6 0v34zm12.6 0v34zm25.2 0v34zm12.6 0v34zm12.6 0v34zm12.6 0v34zm25.2 0v34zm12.6 0v34zm12.6 0v34zm12.6 0v34zm25.2 0v34zm12.6 0v34zm12.6 0v34zm12.6 0v34zm25.2 0v34zm12.6 0v34zm12.6 0v34zm12.6 0v34zm25.2 0v34zm12.6 0v34zm12.6 0v34zm12.6 0v34zm25.2 0v34zm12.6 0v34zm12.6 0v34zm12.6 0v34zm25.2 0v34zm12.6 0v34zm12.6 0v34zm12.6 0v34zm25.2 0v34zm12.6 0v34zm12.6 0v34zm12.6 0v34zm25.2 0v34zm12.6 0v34zm12.6 0v34zm12.6 0v34zm25.2 0v34zm12.6 0v34zm12.6 0v34zm12.6 0v34zm25.2 0v34zm12.6 0v34zm12.6 0v34zm12.6 0v34zm25.2 0v34zm12.6 0v34zm12.6 0v34zm12.6 0v34zm25.2 0v34zm12.6 0v34zm12.6 0v34zm12.6 0v34zm25.2 0v34zm12.6 0v34zm12.6 0v34zm12.6 0v34zm25.2 0v34zm12.6 0v34zm12.6 0v34zm12.6 0v34zm25.2 0v34zm12.6 0v34zm12.6 0v34zm12.6 0v34zm25.2 0v34zm12.6 0v34zm12.6 0v34zm12.6 0v34zm25.2 0v34zm12.6 0v34zm12.6 0v34zm12.6 0v34zm25.2 0v34zm12.6 0v34zm12.6 0v34zm12.6 0v34zm25.2 0v34zm12.6 0v34zm12.6 0v34zm12.6 0v34zm25.2 0v34zm12.6 0v34zm12.6 0v34zm12.6 0v34zm25.2 0v34zm12.6 0v34zm12.6 0v34zm12.6 0v34zm25.2 0v34zm12.6 0v34zm12.6 0v34zm12.6 0v34zm25.2 0v34zm12.6 0v34zm12.6 0v34zm12.6 0v34zm25.2 0v34zm12.6 0v34zm12.6 0v34zm12.6 0v34zm25.2 0v34zm12.6 0v34zm12.6 0v34zm12.6 0v34zm25.2 0v34zm12.6 0v34zm12.6 0v34zm12.6 0v34zm25.2 0v34zm12.6 0v34zm12.6 0v34zm12.6 0v34zm25.2 0v34zm12.6 0v34zm12.6 0v34zm12.6 0v34zm25.2 0v34zm12.6 0v34zm12.6 0v34zm12.6 0v34zm25.2 0v34zm12.6 0v34zm12.6 0v34zm12.6 0v34zm12.6 0v34z"/><path style="stroke:#000;stroke-width:1.75" d="M359.5 447.5V490zm126 0V490zm126 0V490zm126 0V490zm126 0V490zm126 0V490zm126 0V490zm126 0V490zm126 0V490zm126 0V490zm126 0V490zm126 0V490zm126 0V490zm126 0V490zm126 0V490zm126 0V490zm126 0V490zm126 0V490z"/><g style="font-size:40px;font-family:Arial;text-anchor:end"><text x="326.5" y="442">0</text><text x="412.5" y="442">1</text><text x="538.5" y="442">2</text><text x="664.5" y="442">3</text><text x="790.5" y="442">4</text><text x="916.5" y="442">5</text><text x="1042.5" y="442">6</text><text x="1168.5" y="442">7</text><text x="1294.5" y="442">8</text><text x="1420.5" y="442">9</text><text x="1546.5" y="442">10</text><text x="1672.5" y="442">11</text><text x="1798.5" y="442">12</text><text x="1924.5" y="442">13</text><text x="2050.5" y="442">14</text><text x="2176.5" y="442">15</text><text x="2302.5" y="442">16</text><text x="2428.5" y="442">17</text><text x="2554.5" y="442">18</text><text x="2585" y="437.124" style="font-size:24px;text-anchor:start">cm</text></g><path style="stroke:#000;stroke-width:2" d="M296.5 327.6v56zm320 0v56zm320 0v56zm320 0v56zm320 0v56zm320 0v56zm320 0v56zm320 0v56z"/><path style="stroke:#000;stroke-width:1.5" d="M316.5 327.6v26.5zm40 0v26.5zm40 0v26.5zm40 0v26.5zm40 0v26.5zm40 0v26.5zm40 0v26.5zm40 0v26.5zm40 0v26.5zm40 0v26.5zm40 0v26.5zm40 0v26.5zm40 0v26.5zm40 0v26.5zm40 0v26.5zm40 0v26.5zm40 0v26.5zm40 0v26.5zm40 0v26.5zm40 0v26.5zm40 0v26.5zm40 0v26.5zm40 0v26.5zm40 0v26.5zm40 0v26.5zm40 0v26.5zm40 0v26.5zm40 0v26.5zm40 0v26.5zm40 0v26.5zm40 0v26.5zm40 0v26.5zm40 0v26.5zm40 0v26.5zm40 0v26.5zm40 0v26.5zm40 0v26.5zm40 0v26.5zm40 0v26.5zm40 0v26.5zm40 0v26.5zm40 0v26.5zm40 0v26.5zm40 0v26.5zm40 0v26.5zm40 0v26.5zm40 0v26.5zm40 0v26.5zm40 0v26.5zm40 0v26.5zm40 0v26.5zm40 0v26.5zm40 0v26.5zm40 0v26.5zm40 0v26.5zm40 0v26.5z"/><path style="stroke:#000;stroke-width:1.75" d="M336.5 327.6v31.5zm40 0v31.5zm40 0v31.5zm40 0v31.5zm40 0v31.5zm40 0v31.5zm40 0v31.5zm40 0v31.5zm40 0v31.5zm40 0v31.5zm40 0v31.5zm40 0v31.5zm40 0v31.5zm40 0v31.5zm40 0v31.5zm40 0v31.5zm40 0v31.5zm40 0v31.5zm40 0v31.5zm40 0v31.5zm40 0v31.5zm40 0v31.5zm40 0v31.5zm40 0v31.5zm40 0v31.5zm40 0v31.5zm40 0v31.5zm40 0v31.5zm40 0v31.5zm40 0v31.5zm40 0v31.5zm40 0v31.5zm40 0v31.5zm40 0v31.5zm40 0v31.5zm40 0v31.5zm40 0v31.5zm40 0v31.5zm40 0v31.5zm40 0v31.5zm40 0v31.5zm40 0v31.5zm40 0v31.5zm40 0v31.5zm40 0v31.5zm40 0v31.5zm40 0v31.5zm40 0v31.5zm40 0v31.5zm40 0v31.5zm40 0v31.5zm40 0v31.5zm40 0v31.5zm40 0v31.5zm40 0v31.5zm40 0v31.5z"/><path d="m586.079 233.653.148 96.924H1216.6v-96.924z" style="fill:#e5e5e5;stroke:#000;stroke-width:3"/><path style="stroke:#000;stroke-width:2" d="M608.094 288.482v41.174zm70.031 0v41.174zm69.344 0v41.174z"/><path d="M586.079 233.653H1216.6v48.737H586.247Z" style="fill:#ccc;stroke:#000;stroke-width:3"/><path style="stroke:#000;stroke-width:1.5" d="M643.088 303.348v26.548zm70.031 0v26.548z"/><path style="stroke:#000;stroke-width:1px" d="M626.152 315.02v15.792zm34.557 0v15.792zm35.016 0v15.792zm34.558 0v15.792z"/><g style="font-size:24px;font-family:Arial;text-anchor:middle"><text x="775.744" y="324.155" transform="translate(-156 -16)">0</text><text x="824.72" y="324.154" transform="translate(-156 -16)">4</text><text x="892.67" y="323.697" transform="translate(-156 -16)">8</text><text x="970" y="325" style="font-size:20px" transform="translate(-156 -16)">1/128 inch</text></g><path style="fill:#e5e5e5;fill-opacity:1;stroke:#000;stroke-width:3" d="M586.071 487.063H1216.6v101.952H586.071Z"/><path d="M586.071 538.327v50.688H1216.6v-50.688z" style="fill:#cdcdcd;fill-opacity:1;stroke:#000;stroke-width:3"/><path style="stroke:#000;stroke-width:2" d="M658.338 486.924v41.652zm48.748 0v41.652zm49.205 0v41.652zm49.205 0v41.652zm49.205 0v41.652zm48.518 0v41.652zm49.205 0v41.652zm48.976 0v41.652zm49.205 0v41.652zm-441.93.228v46.23zm491.593 0v46.23z"/><path style="stroke:#000;stroke-width:1px" d="M634.08 487.38v28.151zm48.746 0v28.151zm49.205 0v28.151zm49.205 0v28.151zm49.205 0v28.151zm48.518 0v28.151zm49.205 0v28.151zm48.977 0v28.151zm49.205 0v28.151zm49.662 0v28.151z"/><g style="font-size:24px;font-family:Arial;text-anchor:middle"><text x="613.711" y="524.178" style="text-align:right;text-anchor:start" transform="translate(0 6)">0</text><text x="648.498" y="524.178" transform="translate(0 6)">1</text><text x="697.474" y="523.95" transform="translate(0 6)">2</text><text x="745.992" y="523.492" transform="translate(0 6)">3</text><text x="795.426" y="523.95" transform="translate(0 6)">4</text><text x="844.173" y="523.034" transform="translate(0 6)">5</text><text x="893.378" y="523.721" transform="translate(0 6)">6</text><text x="942.583" y="523.721" transform="translate(0 6)">7</text><text x="991.101" y="524.178" transform="translate(0 6)">8</text><text x="1040.306" y="524.178" transform="translate(0 6)">9</text><text x="1088.825" y="524.14" transform="translate(0 6)">0</text><text x="1155" y="505" style="font-size:20px" transform="translate(0 6)">0.05 mm</text></g><g style="font-size:32px;font-family:Arial;text-anchor:end"><text x="325" y="385">0</text><text x="605" y="385">1</text><text x="925" y="385">2</text><text x="1245" y="385">3</text><text x="1565" y="385">4</text><text x="1885" y="385">5</text><text x="2205" y="385">6</text><text x="2525" y="385">7</text><text x="2565" y="385" style="font-size:24px;text-anchor:start">inch</text></g></svg>